<svg width="31" height="30" viewBox="0 0 31 30" fill="none" xmlns="http://www.w3.org/2000/svg">
  <path d="M8.15156 18.7125L11.6758 22.2462C11.4459 22.485 11.1708 22.6755 10.8668 22.8065C10.5627 22.9375 10.2356 23.0065 9.9047 23.0094C9.57376 23.0123 9.24557 22.949 8.93926 22.8233C8.63296 22.6976 8.35468 22.512 8.12067 22.2772C7.88665 22.0425 7.70158 21.7634 7.57626 21.4561C7.45094 21.1489 7.38788 20.8197 7.39076 20.4877C7.39364 20.1558 7.46239 19.8277 7.59301 19.5227C7.72364 19.2177 7.91351 18.9419 8.15156 18.7112V18.7125ZM19.2015 25.3675L18.3205 26.25L4.23853 12.125L5.11833 11.2412L6.49164 11.4375C7.43126 11.5725 8.59769 11.285 9.07997 10.8L13.9214 5.94499C15.3265 4.56214 17.219 3.79162 19.1875 3.80099C21.1559 3.81036 23.0411 4.59887 24.433 5.99504C25.8249 7.39121 26.611 9.28213 26.6203 11.2566C26.6297 13.2311 25.8615 15.1294 24.4829 16.5387L19.6414 21.3962C19.1579 21.8812 18.8713 23.05 19.0059 23.9925L19.2015 25.3675Z" fill="white"/>
</svg>
