<svg width="437" height="104" viewBox="0 0 437 104" fill="none"
  xmlns="http://www.w3.org/2000/svg">
  <g clip-path="url(#clip0_778:13)">
    <path fill-rule="evenodd" clip-rule="evenodd" d="M369.297 7.21405H355.575L355.577 83.1989H369.297V7.21405Z" fill="white"/>
    <path fill-rule="evenodd" clip-rule="evenodd" d="M394.235 51.0366C395.502 42.813 401.2 37.6094 409.327 37.6094C417.874 37.6094 423.47 42.813 423.785 51.0366H394.235ZM409.223 27.0963C392.337 27.0963 380.517 38.5465 380.517 55.513C380.517 72.2715 392.021 83.7202 409.54 83.7202C419.459 83.7202 427.691 80.1809 433.285 74.1437L425.897 66.5457C421.887 70.6058 416.505 72.7908 410.7 72.7908C402.468 72.7908 396.347 68.0033 394.554 60.0925H436.24C437.611 39.8994 429.063 27.0963 409.223 27.0963Z" fill="white"/>
    <path fill-rule="evenodd" clip-rule="evenodd" d="M118.337 26.9918C109.155 27.0951 102.084 30.5297 98.0741 37.9212V27.5112H84.3542V83.1996H98.0741V55.826C98.0741 46.6641 103.561 39.8996 112.848 39.7949C120.658 39.7949 125.406 44.5838 125.406 52.3899V83.1996H139.232V48.4331C139.232 35.2154 131.318 26.9918 118.337 26.9918Z" fill="white"/>
    <path fill-rule="evenodd" clip-rule="evenodd" d="M151.709 83.1979H165.429V27.5109H151.709V83.1979Z" fill="white"/>
    <path fill-rule="evenodd" clip-rule="evenodd" d="M251.887 26.9918C241.967 27.0951 234.579 31.26 230.886 40.3142C228.246 31.8841 221.387 26.9918 211.465 26.9918C202.495 27.0951 195.53 30.4279 191.626 37.8165V27.5112H177.906V83.1996H191.626V55.7198C191.626 46.6641 197.008 40.0015 205.977 39.6916C213.576 39.6916 218.221 44.4777 218.221 52.3899V83.1996H232.045V55.7198C232.045 46.6641 237.429 40.0015 246.293 39.6916C253.89 39.6916 258.641 44.4777 258.641 52.3899V83.1996H272.466V48.4331C272.466 35.2154 264.654 26.9918 251.887 26.9918Z" fill="white"/>
    <path fill-rule="evenodd" clip-rule="evenodd" d="M314.6 72.0625C305.206 72.0625 298.665 65.1932 298.665 55.2007C298.665 45.4162 305.206 38.4408 314.6 38.4408C323.886 38.4408 330.43 45.4162 330.43 55.2007C330.43 65.0885 323.886 72.0625 314.6 72.0625ZM317.66 27.0954C309.218 27.0954 302.673 30.53 298.665 36.6719V7.21362H284.943V83.1999H298.665V74.1442C302.78 80.2846 309.322 83.7207 317.871 83.7207C333.912 83.7207 344.361 72.3752 344.361 55.6153C344.361 38.547 333.597 27.0954 317.66 27.0954Z" fill="white"/>
    <path opacity="0.3" fill-rule="evenodd" clip-rule="evenodd" d="M151.709 20.7455H165.429V7.21362H151.709V20.7455Z" fill="white"/>
    <path opacity="0.5" fill-rule="evenodd" clip-rule="evenodd" d="M0 41.6012H21.0888V20.8013H0V41.6012Z" fill="white"/>
    <path opacity="0.6" fill-rule="evenodd" clip-rule="evenodd" d="M21.0889 20.8008L42.1778 41.6007H21.0889V20.8008Z" fill="white"/>
    <path opacity="0.4" fill-rule="evenodd" clip-rule="evenodd" d="M0 62.401H21.0888V41.601H0V62.401Z" fill="white"/>
    <path opacity="0.3" fill-rule="evenodd" clip-rule="evenodd" d="M0 104H21.0888V83.2016H0V104Z" fill="white"/>
    <path opacity="0.5" fill-rule="evenodd" clip-rule="evenodd" d="M21.0889 62.401H42.1778V41.601H21.0889V62.401Z" fill="white"/>
    <path opacity="0.6" fill-rule="evenodd" clip-rule="evenodd" d="M42.1779 62.401H63.2667V41.601H42.1779V62.401Z" fill="white"/>
    <path opacity="0.7" fill-rule="evenodd" clip-rule="evenodd" d="M42.1779 20.8H63.2667V0H42.1779V20.8Z" fill="white"/>
    <path opacity="0.4" fill-rule="evenodd" clip-rule="evenodd" d="M21.0889 62.4008H42.1778V83.2007L21.0889 62.4008Z" fill="white"/>
    <path opacity="0.5" fill-rule="evenodd" clip-rule="evenodd" d="M42.1779 83.2017H63.2667V62.4018H42.1779V83.2017Z" fill="white"/>
  </g>
  <defs>
    <clipPath id="clip0_778:13">
      <rect width="436.381" height="104" fill="white"/>
    </clipPath>
  </defs>
</svg>
