<svg width="168" height="40" viewBox="0 0 168 40" fill="none" xmlns="http://www.w3.org/2000/svg">
  <g clip-path="url(#clip0_6_909)">
    <path fill-rule="evenodd" clip-rule="evenodd" d="M142.118 2.77466H136.84L136.841 31.9996H142.118V2.77466Z" fill="white"/>
    <path fill-rule="evenodd" clip-rule="evenodd" d="M151.709 19.6294C152.197 16.4665 154.388 14.4651 157.514 14.4651C160.801 14.4651 162.954 16.4665 163.075 19.6294H151.709ZM157.474 10.4216C150.979 10.4216 146.433 14.8255 146.433 21.3511C146.433 27.7967 150.858 32.2 157.596 32.2C161.411 32.2 164.577 30.8387 166.729 28.5168L163.887 25.5944C162.345 27.156 160.275 27.9964 158.042 27.9964C154.876 27.9964 152.522 26.1551 151.832 23.1125H167.865C168.393 15.3459 165.105 10.4216 157.474 10.4216Z" fill="white"/>
    <path fill-rule="evenodd" clip-rule="evenodd" d="M45.5947 10.3815C42.0633 10.4212 39.3438 11.7422 37.8013 14.5851V10.5812H32.5245V31.9999H37.8013V21.4715C37.8013 17.9477 39.9116 15.346 43.4838 15.3057C46.4876 15.3057 48.3136 17.1476 48.3136 20.15V31.9999H53.6313V18.6281C53.6313 13.5444 50.5873 10.3815 45.5947 10.3815Z" fill="white"/>
    <path fill-rule="evenodd" clip-rule="evenodd" d="M58.4302 31.9993H63.7071V10.5812H58.4302V31.9993Z" fill="white"/>
    <path fill-rule="evenodd" clip-rule="evenodd" d="M96.9603 10.3815C93.1447 10.4212 90.3032 12.0231 88.8827 15.5055C87.8673 12.2631 85.2295 10.3815 81.4134 10.3815C77.9631 10.4212 75.2844 11.703 73.7828 14.5448V10.5812H68.506V31.9999H73.7828V21.4307C73.7828 17.9477 75.8529 15.3852 79.3025 15.266C82.2251 15.266 84.0115 17.1068 84.0115 20.15V31.9999H89.3286V21.4307C89.3286 17.9477 91.3992 15.3852 94.8086 15.266C97.7307 15.266 99.5579 17.1068 99.5579 20.15V31.9999H104.875V18.6281C104.875 13.5444 101.871 10.3815 96.9603 10.3815Z" fill="white"/>
    <path fill-rule="evenodd" clip-rule="evenodd" d="M121.08 27.7163C117.467 27.7163 114.952 25.0743 114.952 21.231C114.952 17.4677 117.467 14.7849 121.08 14.7849C124.652 14.7849 127.169 17.4677 127.169 21.231C127.169 25.034 124.652 27.7163 121.08 27.7163ZM122.258 10.4212C119.01 10.4212 116.493 11.7423 114.951 14.1045V2.77441H109.674V31.9999H114.951V28.5169C116.534 30.8786 119.051 32.2002 122.339 32.2002C128.508 32.2002 132.527 27.8366 132.527 21.3905C132.527 14.8257 128.387 10.4212 122.258 10.4212Z" fill="white"/>
    <path opacity="0.3" fill-rule="evenodd" clip-rule="evenodd" d="M58.4302 7.97898H63.7071V2.77441H58.4302V7.97898Z" fill="white"/>
    <path opacity="0.5" fill-rule="evenodd" clip-rule="evenodd" d="M0.0805054 16.0005H8.1916V8.00049H0.0805054V16.0005Z" fill="white"/>
    <path opacity="0.6" fill-rule="evenodd" clip-rule="evenodd" d="M8.19165 8.00024L16.3027 16.0002H8.19165V8.00024Z" fill="white"/>
    <path opacity="0.4" fill-rule="evenodd" clip-rule="evenodd" d="M0.0805054 24.0004H8.1916V16.0004H0.0805054V24.0004Z" fill="white"/>
    <path opacity="0.3" fill-rule="evenodd" clip-rule="evenodd" d="M0.0805054 40H8.1916V32.0006H0.0805054V40Z" fill="white"/>
    <path opacity="0.5" fill-rule="evenodd" clip-rule="evenodd" d="M8.19165 24.0004H16.3027V16.0004H8.19165V24.0004Z" fill="white"/>
    <path opacity="0.6" fill-rule="evenodd" clip-rule="evenodd" d="M16.3028 24.0004H24.4139V16.0004H16.3028V24.0004Z" fill="white"/>
    <path opacity="0.7" fill-rule="evenodd" clip-rule="evenodd" d="M16.3028 7.99998H24.4139V0H16.3028V7.99998Z" fill="white"/>
    <path opacity="0.4" fill-rule="evenodd" clip-rule="evenodd" d="M8.19165 24.0002H16.3027V32.0002L8.19165 24.0002Z" fill="white"/>
    <path opacity="0.5" fill-rule="evenodd" clip-rule="evenodd" d="M16.3028 32.0007H24.4139V24.0007H16.3028V32.0007Z" fill="white"/>
  </g>
  <defs>
    <clipPath id="clip0_6_909">
    <rect width="167.839" height="40" fill="white" transform="translate(0.0805054)"/>
    </clipPath>
  </defs>
</svg>
